<svg width="84" height="94" viewBox="0 0 84 94" fill="none" xmlns="http://www.w3.org/2000/svg">
<g filter="url(#filter0_d_1429_4100)">
<path d="M43.6749 72.1307C43.6749 61.6732 52.5638 52.2614 63.5442 52.2614C66.6814 52.2614 69.2958 53.3072 71.9102 53.8301V16.7059C71.9102 14.0915 69.2958 12 67.2043 12H17.5311C14.9167 12 12.8252 14.6144 12.8252 16.7059V76.3137C12.8252 78.9281 15.4396 81.0196 17.5311 81.0196H46.2893C44.7206 77.8824 43.6749 75.268 43.6749 72.1307ZM23.2827 25.5948H55.1781C56.7468 25.5948 57.7925 26.6405 57.7925 28.2092C57.7925 29.7778 56.7468 30.3007 55.1781 30.3007H23.2827C21.7141 30.3007 20.6683 29.7778 20.6683 28.2092C20.6683 26.6405 21.7141 25.5948 23.2827 25.5948ZM30.0801 63.7647H23.2827C21.7141 63.7647 20.6683 62.719 20.6683 61.1503C20.6683 59.5817 21.7141 58.5359 23.2827 58.5359H30.0801C31.6487 59.0588 32.1716 60.1046 32.1716 61.6732C32.1716 63.2418 31.6487 63.7647 30.0801 63.7647ZM37.4004 47.5556H23.2827C21.7141 47.5556 20.6683 46.5098 20.6683 44.9412C20.6683 43.3726 21.7141 42.3268 23.2827 42.3268H37.4004C38.969 42.3268 40.0147 43.3726 40.0147 44.9412C39.4919 47.0327 38.969 47.5556 37.4004 47.5556Z" fill="url(#paint0_linear_1429_4100)" shape-rendering="crispEdges"/>
<path d="M71.5179 55.7912L73.9102 56.2697V53.8301V16.7059C73.9102 14.7142 72.9203 13.0379 71.7024 11.907C70.5053 10.7953 68.8631 10 67.2043 10H17.5311C15.5394 10 13.8631 10.9898 12.7322 12.2077C11.6205 13.4049 10.8252 15.0471 10.8252 16.7059V76.3137C10.8252 78.3054 11.815 79.9818 13.0329 81.1127C14.2301 82.2243 15.8723 83.0196 17.5311 83.0196H46.2893H49.5253L48.0781 80.1252C46.5399 77.0489 45.6749 74.7825 45.6749 72.1307C45.6749 62.7437 53.7022 54.2614 63.5442 54.2614C64.8902 54.2614 66.1568 54.485 67.46 54.7953C67.8962 54.8992 68.3785 55.0247 68.8796 55.1552C69.7496 55.3816 70.6765 55.6229 71.5179 55.7912ZM23.2827 27.5948H55.1781C55.508 27.5948 55.6274 27.696 55.6594 27.7279C55.6913 27.7599 55.7925 27.8793 55.7925 28.2092C55.7925 28.2227 55.7923 28.2353 55.792 28.2472C55.6609 28.2767 55.4618 28.3007 55.1781 28.3007H23.2827C22.9991 28.3007 22.7999 28.2767 22.6688 28.2472C22.6685 28.2353 22.6683 28.2227 22.6683 28.2092C22.6683 27.8793 22.7695 27.7599 22.8015 27.7279C22.8335 27.696 22.9529 27.5948 23.2827 27.5948ZM30.0801 61.7647H23.2827C22.9529 61.7647 22.8335 61.6635 22.8015 61.6315C22.7695 61.5996 22.6683 61.4801 22.6683 61.1503C22.6683 60.8205 22.7695 60.7011 22.8015 60.6691C22.8335 60.6372 22.9529 60.5359 23.2827 60.5359H29.7071C29.9384 60.6461 29.998 60.7403 30.0181 60.7724C30.0696 60.8549 30.1716 61.0867 30.1716 61.6732C30.1716 61.7051 30.1713 61.7353 30.1707 61.7638C30.1422 61.7644 30.112 61.7647 30.0801 61.7647ZM37.4004 45.5556H23.2827C22.9529 45.5556 22.8335 45.4543 22.8015 45.4224C22.7695 45.3904 22.6683 45.271 22.6683 44.9412C22.6683 44.6114 22.7695 44.4919 22.8015 44.46C22.8335 44.428 22.9529 44.3268 23.2827 44.3268H37.4004C37.7302 44.3268 37.8496 44.428 37.8816 44.46C37.906 44.4844 37.9708 44.5598 38.0001 44.7411C37.9123 45.0622 37.8357 45.286 37.768 45.4442C37.7513 45.4831 37.7364 45.5151 37.7235 45.5409C37.6552 45.5486 37.5514 45.5556 37.4004 45.5556Z" stroke="url(#paint1_linear_1429_4100)" stroke-width="4" shape-rendering="crispEdges"/>
</g>
<path d="M61.8693 51C50.8889 51 42 59.8889 42 70.3464C42 80.8039 50.8889 90.2157 61.8693 90.2157C72.8497 90.2157 81.7386 81.3268 81.7386 70.3464C80.6928 59.8889 72.3268 51 61.8693 51ZM69.1895 73.4837H59.2549C58.2092 73.4837 57.6863 72.4379 57.6863 71.915V61.9804C57.6863 60.9346 58.732 60.4118 59.2549 60.4118C60.3007 60.4118 60.8235 61.4575 60.8235 61.9804V70.8693H69.7124C70.7582 70.8693 71.281 70.8693 71.281 72.4379C71.8039 74.0065 69.7124 73.4837 69.1895 73.4837Z" fill="url(#paint2_linear_1429_4100)"/>
<defs>
<filter id="filter0_d_1429_4100" x="0.825195" y="0" width="83.085" height="93.0196" filterUnits="userSpaceOnUse" color-interpolation-filters="sRGB">
<feFlood flood-opacity="0" result="BackgroundImageFix"/>
<feColorMatrix in="SourceAlpha" type="matrix" values="0 0 0 0 0 0 0 0 0 0 0 0 0 0 0 0 0 0 127 0" result="hardAlpha"/>
<feOffset/>
<feGaussianBlur stdDeviation="4"/>
<feComposite in2="hardAlpha" operator="out"/>
<feColorMatrix type="matrix" values="0 0 0 0 0 0 0 0 0 0 0 0 0 0 0 0 0 0 0.05 0"/>
<feBlend mode="normal" in2="BackgroundImageFix" result="effect1_dropShadow_1429_4100"/>
<feBlend mode="normal" in="SourceGraphic" in2="effect1_dropShadow_1429_4100" result="shape"/>
</filter>
<linearGradient id="paint0_linear_1429_4100" x1="16.7669" y1="11.5308" x2="59.6696" y2="81.2475" gradientUnits="userSpaceOnUse">
<stop stop-color="#F7CEB3"/>
<stop offset="1" stop-color="#FFF8F4"/>
</linearGradient>
<linearGradient id="paint1_linear_1429_4100" x1="13.0129" y1="11.5308" x2="67.7138" y2="81.2475" gradientUnits="userSpaceOnUse">
<stop stop-color="white"/>
<stop offset="1" stop-color="white" stop-opacity="0.8"/>
</linearGradient>
<linearGradient id="paint2_linear_1429_4100" x1="61.8693" y1="51" x2="61.8693" y2="90.2157" gradientUnits="userSpaceOnUse">
<stop stop-color="#FFE870"/>
<stop offset="1" stop-color="#FF8845"/>
</linearGradient>
</defs>
</svg>
