<svg width="70" height="70" viewBox="0 0 70 70" fill="none" xmlns="http://www.w3.org/2000/svg">
<circle cx="35" cy="35" r="35" fill="#3165F2"/>
<path d="M51.1361 18.2251C50.5167 17.925 49.9164 17.925 49.597 18.2251C48.7789 18.6436 47.9588 19.0432 47.1407 19.4617C45.1028 20.4808 43.0862 21.4996 41.0484 22.5187L33.2585 26.4127C31.022 27.5329 28.7851 28.7105 26.5298 29.7886C24.8109 30.6067 23.1349 31.5263 21.435 32.3464C20.6951 32.7059 19.9171 32.9447 19.1796 33.3231C18.579 33.6232 18 34.0842 18 34.824C18 35.1623 18.0614 35.6398 18.3383 35.8809C18.4397 35.9612 18.5601 36.0205 18.6596 36.1008C20.1775 36.9398 21.6171 37.94 23.0948 38.8572L25.9697 40.654H25.9909C26.6104 40.9541 27.2083 40.9541 27.8301 40.3539L27.849 40.3326C27.8679 40.3138 27.8872 40.3137 27.8872 40.2945C27.9084 40.2732 27.9485 40.2544 27.9674 40.2142C28.0099 40.1741 28.0476 40.1548 28.0878 40.1147C28.1279 40.0746 28.1873 40.0345 28.2274 39.9944C28.2868 39.935 28.3481 39.8949 28.3883 39.8359C28.4473 39.7745 28.5067 39.7151 28.5869 39.6561C28.6671 39.5947 28.7265 39.5165 28.8068 39.4551C28.887 39.3749 28.9672 39.3155 29.0455 39.2352C29.1258 39.155 29.2253 39.0767 29.3055 38.9965C29.407 38.9162 29.4853 38.8171 29.5867 38.7365C29.6859 38.637 29.7854 38.5567 29.8849 38.4572C29.9864 38.3581 30.1048 38.2566 30.2043 38.1571C30.3246 38.0576 30.4241 37.9585 30.5445 37.857C30.6649 37.7575 30.7832 37.6371 30.904 37.54C31.0244 37.4173 31.1451 37.3178 31.2847 37.1974C31.4031 37.079 31.5447 36.9586 31.6651 36.8591C31.8024 36.7388 31.9231 36.618 32.0624 36.4996C32.202 36.3793 32.3416 36.2585 32.464 36.1193C32.6012 36.0009 32.7409 35.8593 32.8825 35.7385C33.0221 35.6201 33.1613 35.4805 33.301 35.3601C33.4406 35.2205 33.6011 35.1002 33.7407 34.9605C33.8803 34.8209 34.0408 34.7005 34.1804 34.5613C34.3201 34.4217 34.4786 34.3013 34.6202 34.1617C34.7787 34.022 34.9183 33.8828 35.0788 33.7624C35.2397 33.6228 35.3789 33.4832 35.5374 33.3628C35.6983 33.2232 35.8375 33.0839 35.998 32.9443C36.1569 32.8047 36.2962 32.665 36.4567 32.5258C36.6152 32.3842 36.7568 32.2446 36.9153 32.1242C37.0549 31.9846 37.2154 31.8453 37.355 31.7269C37.4947 31.5853 37.6551 31.467 37.7948 31.3254C37.9344 31.1857 38.0949 31.0673 38.2345 30.9281C38.3741 30.7865 38.5134 30.6681 38.6742 30.5265C38.8139 30.4081 38.9531 30.2685 39.0928 30.1481C39.2324 30.0278 39.372 29.8881 39.5136 29.7674C39.6533 29.649 39.7929 29.5286 39.9132 29.4079C40.0529 29.2895 40.1713 29.1691 40.3105 29.0484C40.4309 28.93 40.5705 28.8096 40.6912 28.7101C40.8116 28.5897 40.93 28.4902 41.0508 28.3718C41.1711 28.2704 41.2895 28.1496 41.4103 28.0505C41.5306 27.9514 41.6301 27.8519 41.7485 27.7504C41.85 27.6509 41.9704 27.5517 42.0699 27.4522C42.1694 27.3507 42.2685 27.2705 42.37 27.1714C42.4691 27.0912 42.5497 27.0129 42.6489 26.9114C42.7291 26.8331 42.8286 26.7529 42.9088 26.6726C42.9891 26.5924 43.0674 26.533 43.1476 26.4528C43.2278 26.3938 43.2872 26.3324 43.3675 26.2541L43.5472 26.0744C43.6086 26.0319 43.6467 25.9729 43.7077 25.9328C43.7478 25.8946 43.7879 25.8545 43.8473 25.8144C43.8875 25.7719 43.9276 25.753 43.9465 25.7149L44.0672 25.5945H44.0884C44.188 25.6346 44.2871 25.694 44.3866 25.7342C44.446 25.7554 44.4861 25.7932 44.5475 25.8144C44.5687 25.8356 44.5876 25.8356 44.6257 25.8545C44.647 25.8545 44.706 25.8758 44.706 25.8946V25.9139C44.6847 25.9352 44.6659 25.9352 44.6659 25.954L44.6065 26.013L44.3465 26.273C44.2261 26.3934 44.1077 26.5118 44.0082 26.6534C43.928 26.7316 43.8477 26.8331 43.7671 26.9114C43.7219 26.9543 43.6817 27.0019 43.6467 27.053L43.5873 27.112C43.5661 27.1332 43.5472 27.1714 43.5283 27.1714C43.1688 27.5517 42.8097 27.9514 42.4502 28.3297L39.6324 31.3273C38.5543 32.4648 37.4974 33.6043 36.4173 34.7414C35.3986 35.8196 34.3795 36.8977 33.3816 37.9778C32.6016 38.7959 31.8425 39.616 31.0649 40.4341C30.7266 40.7936 30.384 41.1527 30.0458 41.5335L30.0245 41.5547C29.7264 41.8529 29.7264 42.1718 29.7264 42.4723V49.2239C29.7264 49.843 30.0245 50.4412 30.644 50.7606C31.2631 51.0607 31.8637 50.7606 32.1827 50.4605L34.5588 48.0844C34.9604 47.6848 35.3388 47.2851 35.7176 46.8859C35.7597 46.8458 35.7978 46.8057 35.8379 46.8057C35.8969 46.7844 35.9776 46.8269 36.0177 46.867C37.377 47.7654 38.7152 48.7039 40.0721 49.6026C41.0909 50.2811 42.11 50.962 43.1079 51.6405C43.4461 51.8792 43.727 52 44.127 52H44.7461C45.1268 51.8202 45.486 51.5815 45.6043 51.161C45.7247 50.7803 45.7459 50.3429 45.8242 49.9625C45.8455 49.8229 45.8856 49.6624 45.9045 49.5228C45.9847 49.1425 46.0441 48.7829 46.1243 48.4046C46.3253 47.3854 46.5236 46.3667 46.7246 45.3688L47.5026 41.513C47.7814 40.0758 48.0819 38.6382 48.3608 37.1793L49.2592 32.7252C49.5404 31.3088 49.8193 29.8885 50.1194 28.4698C50.3581 27.2331 50.6181 25.9942 50.8592 24.7556C51.0366 23.8171 51.2376 22.8786 51.4174 21.9189C51.5169 21.3796 51.6373 20.8407 51.7368 20.3207C51.7596 20.2429 51.7733 20.1626 51.7769 20.082C51.7368 19.1435 51.7368 18.524 51.1385 18.2239L51.1361 18.2251Z" fill="white"/>
</svg>
